SplineFontDB: 3.0
FontName: Scorek
FullName: Scorek
FamilyName: Scorek
Weight: Normal
Copyright: Copyright (c) 2016, Tomasz Bojczuk, This font is licensed under the Creative Commons License
UComments: "2016-9-24: Created with FontForge (http://fontforge.org)"
Version: 001.000
ItalicAngle: 0
UnderlinePosition: -100
UnderlineWidth: 50
Ascent: 800
Descent: 200
InvalidEm: 0
sfntRevision: 0x00010000
LayerCount: 2
Layer: 0 0 "Warstwa t+AUIA-a" 1
Layer: 1 0 "Plan pierwszy" 0
XUID: [1021 510 384241068 11647382]
StyleMap: 0x0040
FSType: 0
OS2Version: 3
OS2_WeightWidthSlopeOnly: 0
OS2_UseTypoMetrics: 0
CreationTime: 1474752925
ModificationTime: 1484734745
PfmFamily: 81
TTFWeight: 400
TTFWidth: 5
LineGap: 0
VLineGap: 0
Panose: 5 6 0 0 0 0 0 0 0 0
OS2TypoAscent: 2012
OS2TypoAOffset: 0
OS2TypoDescent: -2212
OS2TypoDOffset: 0
OS2TypoLinegap: 0
OS2WinAscent: 2012
OS2WinAOffset: 0
OS2WinDescent: 2012
OS2WinDOffset: 0
HheadAscent: 2012
HheadAOffset: 0
HheadDescent: -2012
HheadDOffset: 0
OS2SubXSize: 650
OS2SubYSize: 700
OS2SubXOff: 47
OS2SubYOff: 140
OS2SupXSize: 650
OS2SupYSize: 600
OS2SupXOff: 0
OS2SupYOff: 350
OS2StrikeYSize: 50
OS2StrikeYPos: 165
OS2CapHeight: 475
OS2Vendor: 'SeeL'
OS2CodePages: 00000000.00000000
OS2UnicodeRanges: 00000000.00000000.00000000.00000000
MarkAttachClasses: 1
DEI: 91125
LangName: 1033
Encoding: UnicodeBmp
UnicodeInterp: none
NameList: AGL For New Fonts
DisplaySize: -128
AntiAlias: 1
FitToEm: 0
WinInfo: 57424 8 2
BeginPrivate: 0
EndPrivate
Grid
-1000 -878.999973804 m 0
 2000 -878.999973804 l 1024
  Named: "bottom"
-1000 1112.99996683 m 0
 2000 1112.99996683 l 1024
  Named: "top"
EndSplineSet
BeginChars: 65536 41

StartChar: uniECA2
Encoding: 60578 60578 0
Width: 459
Flags: W
HStem: -125 25<253 263.5 253 313> 123 25<190 244>
VStem: 0 117<36 50> 341 118<-25 10>
LayerCount: 2
Fore
SplineSet
235 148 m 0
 336 148 459 90 459 13 c 0
 459 -63 402 -125 224 -125 c 0
 62 -125 0 -60 0 13 c 0
 0 87 90 148 235 148 c 0
121 80 m 0
 118 71 117 62 117 53 c 0
 117 19 134 -18 155 -43 c 0
 162 -52 170 -60 178 -67 c 0
 193 -80 211 -90 229 -96 c 0
 239 -99 248 -100 258 -100 c 0
 269 -100 280 -99 291 -96 c 0
 318 -89 334 -70 339 -43 c 0
 340 -37 341 -30 341 -23 c 0
 341 43 281 123 207 123 c 0
 173 123 133 117 121 80 c 0
EndSplineSet
Validated: 1
EndChar

StartChar: uniECA3
Encoding: 60579 60579 1
Width: 341
Flags: W
HStem: -141 45<80.5 99.5 75 207> 101 48<244 244.5 140.5 267>
VStem: 0 34<-51 -34.5 -51 -15> 311 30<122 688>
LayerCount: 2
Fore
SplineSet
139 56 m 0
 59 10 34 -22 34 -47 c 0
 34 -55 37 -63 41 -70 c 0
 49 -84 63 -96 87 -96 c 0
 112 -96 148 -84 200 -49 c 0
 281 4 305 32 305 55 c 0
 305 63 302 70 298 77 c 0
 290 91 278 101 256 101 c 0
 232 101 196 89 139 56 c 0
341 688 m 1
 341 52 l 2
 341 13 302 -141 112 -141 c 0
 49 -141 0 -106 0 -45 c 0
 0 15 54 149 227 149 c 0
 262 149 291 139 311 122 c 1
 311 688 l 1
 341 688 l 1
EndSplineSet
Validated: 1
EndChar

StartChar: uniECA4
Encoding: 60580 60580 2
Width: 341
Flags: W
HStem: -149 45<95.5 99.5 75 207.5> 93 48<244 260.5 140.5 267>
VStem: 0 30<-688 -121 -688 -52> 305 36<35.5 51>
LayerCount: 2
Fore
SplineSet
200 -57 m 0
 281 -4 305 24 305 47 c 0
 305 55 302 62 298 69 c 0
 290 83 278 93 256 93 c 0
 232 93 196 81 139 48 c 0
 59 2 34 -30 34 -55 c 0
 34 -63 37 -71 41 -78 c 0
 49 -92 63 -104 87 -104 c 0
 112 -104 148 -92 200 -57 c 0
0 -688 m 1
 0 -52 l 2
 0 8 54 141 227 141 c 0
 294 141 341 103 341 44 c 0
 341 6 303 -149 112 -149 c 0
 79 -149 50 -139 30 -121 c 1
 30 -688 l 1
 0 -688 l 1
EndSplineSet
Validated: 1
EndChar

StartChar: uniECA5
Encoding: 60581 60581 3
Width: 332
Flags: W
HStem: -141 829<78.5 332>
VStem: 302 30<115 688>
LayerCount: 2
Fore
SplineSet
302 115 m 1
 302 688 l 1
 332 688 l 1
 332 47 l 2
 332 -48 209 -141 109 -141 c 0
 48 -141 0 -106 0 -47 c 0
 0 50 99 141 222 141 c 0
 255 141 283 132 302 115 c 1
EndSplineSet
Validated: 1
EndChar

StartChar: uniECA6
Encoding: 60582 60582 4
Width: 332
Flags: W
HStem: -688 829<0 254.5 0 254.5>
VStem: 0 30<-688 -306 -306 -114 -688 -47>
LayerCount: 2
Fore
SplineSet
0 -306 m 1
 0 -47 l 2
 0 50 99 141 222 141 c 0
 287 141 332 104 332 47 c 0
 332 -48 209 -141 109 -141 c 0
 78 -141 50 -131 30 -114 c 1
 30 -688 l 1
 0 -688 l 1
 0 -306 l 1
EndSplineSet
Validated: 1
EndChar

StartChar: uniECA7
Encoding: 60583 60583 5
Width: 534
Flags: W
HStem: -141 837<78.5 317>
VStem: 302 30<115 464> 495 38<187 206 206 213 181 227.5>
LayerCount: 2
Fore
SplineSet
311 696 m 2
 317 696 l 2
 325 696 333 694 337 679 c 0
 352 606 388 541 432 480 c 0
 488 402 529 310 533 213 c 1
 533 206 l 2
 533 156 514 87 511 78 c 0
 505 66 499 62 492 62 c 0
 490 62 488 63 486 64 c 0
 480 66 472 74 472 86 c 0
 472 89 473 93 475 98 c 0
 489 133 495 170 495 204 c 0
 495 251 485 294 475 321 c 0
 436 429 371 456 332 464 c 1
 332 47 l 2
 332 -48 209 -141 109 -141 c 0
 48 -141 0 -106 0 -47 c 0
 0 50 99 141 222 141 c 0
 255 141 283 132 302 115 c 1
 302 689 l 2
 302 696 306 696 311 696 c 2
EndSplineSet
Validated: 1
EndChar

StartChar: uniECA8
Encoding: 60584 60584 6
Width: 332
Flags: W
HStem: -706 847<8 254.5>
VStem: 0 30<-478 -114 -478 -47> 190 45<-224 -219 -224 -202>
LayerCount: 2
Fore
SplineSet
30 -114 m 1
 30 -478 l 1
 69 -470 133 -443 174 -334 c 0
 183 -308 190 -264 190 -217 c 0
 190 -187 187 -156 180 -127 c 1
 156 -136 132 -141 109 -141 c 0
 78 -141 50 -131 30 -114 c 1
0 -694 m 1
 0 -47 l 2
 0 50 99 141 222 141 c 0
 287 141 332 104 332 47 c 0
 332 -14 280 -75 216 -110 c 1
 225 -143 235 -188 235 -219 c 2
 235 -224 l 1
 231 -322 190 -416 132 -494 c 0
 87 -553 45 -611 30 -686 c 0
 28 -695 17 -706 11 -706 c 0
 5 -706 0 -694 0 -694 c 1
EndSplineSet
Validated: 1
EndChar

StartChar: uniECA9
Encoding: 60585 60585 7
Width: 522
Flags: W
HStem: -141 841<78.5 317.5> 527 173<312.5 344 312.5 351>
VStem: 302 30<115 386 684 689> 488 30<372.5 388> 490 31<145.5 159 159 176 140 177>
LayerCount: 2
Fore
SplineSet
351 527 m 2x70
 344 527 l 2
 338 527 334 526 334 522 c 0
 333 521 334 519 334 518 c 0
 351 453 386 435 424 391 c 0
 440 373 453 357 466 338 c 0
 467 335 469 334 472 334 c 0
 476 334 481 337 482 339 c 0
 486 345 486 353 487 359 c 0
 488 365 488 370 488 375 c 0
 488 401 481 425 467 445 c 0
 441 484 399 527 351 527 c 2x70
332 689 m 1
 332 684 l 1
 346 606 389 593 430 548 c 0x70
 487 487 507 465 516 411 c 0
 517 402 518 393 518 383 c 0
 518 335 501 288 498 283 c 0xb0
 497 281 497 280 497 278 c 0
 497 275 498 273 498 270 c 0
 512 241 521 209 521 176 c 2
 521 159 l 2
 521 121 519 76 516 72 c 0
 511 62 506 59 500 59 c 0
 499 59 496 60 493 61 c 0
 488 62 482 69 482 80 c 0
 482 82 482 84 483 86 c 0
 487 110 490 134 490 157 c 0
 490 197 482 236 464 274 c 0
 420 365 373 382 332 386 c 1xa8
 332 47 l 2
 332 -48 209 -141 109 -141 c 0
 48 -141 0 -106 0 -47 c 0
 0 50 99 141 222 141 c 0
 255 141 283 132 302 115 c 1
 302 699 l 1
 302 699 310 700 315 700 c 0
 320 700 329 698 331 690 c 1
 331 690 331 690 331 690 c 1
 331 689 l 1
 332 689 l 1
EndSplineSet
Validated: 5
EndChar

StartChar: uniECAA
Encoding: 60586 60586 8
Width: 332
Flags: W
HStem: -706 847<8.5 254.5>
VStem: 0 30<-342 -114 -342 -47> 210 34<-342 -332> 211 37<-126 -119 -129 -113 -129 -113>
LayerCount: 2
Fore
SplineSet
211 -126 m 2xd0
 211 -113 l 1
 178 -130 142 -141 109 -141 c 0
 78 -141 50 -131 30 -114 c 1
 30 -342 l 1
 77 -337 126 -318 184 -216 c 0
 204 -179 211 -151 211 -126 c 2xd0
48 -503 m 2
 55 -503 l 2
 110 -503 156 -455 185 -411 c 0
 201 -389 210 -363 210 -336 c 0
 210 -328 209 -319 207 -311 c 0
 207 -306 205 -298 203 -290 c 0
 202 -288 197 -285 193 -285 c 0
 190 -285 187 -286 185 -289 c 0
 170 -311 155 -329 137 -350 c 0xe0
 95 -398 54 -419 34 -491 c 0
 34 -496 39 -503 48 -503 c 2
0 -695 m 1
 0 -47 l 2
 0 50 99 141 222 141 c 0
 287 141 332 104 332 47 c 0
 332 -4 296 -55 247 -91 c 1
 248 -101 248 -110 248 -119 c 2
 248 -129 l 2xd0
 245 -188 240 -198 227 -222 c 2
 224 -227 l 2
 223 -230 222 -232 222 -234 c 0
 222 -236 222 -237 224 -241 c 2
 224 -241 225 -243 225 -244 c 0
 229 -254 244 -291 244 -336 c 0
 244 -348 243 -361 240 -373 c 0
 229 -432 209 -457 146 -526 c 0
 98 -578 46 -593 31 -689 c 0
 29 -696 17 -706 12 -706 c 0
 5 -706 0 -695 0 -695 c 1
EndSplineSet
Validated: 1
EndChar

StartChar: uniECAB
Encoding: 60587 60587 9
Width: 538
Flags: W
HStem: 913 10<303 316.5>
VStem: 302 29 502 32<396.5 409.5 378.5 413.5> 504 34<152 162.5 139 186.5>
LayerCount: 2
Fore
SplineSet
501 564 m 0xe0
 502 571 504 576 504 583 c 0
 504 595 500 608 490 626 c 0
 441 710 387 732 338 732 c 1
 352 644 396 629 441 580 c 0
 461 558 477 541 490 525 c 1
 495 540 499 555 501 564 c 0xe0
433 414 m 1
 438 409 l 2
 453 391 466 376 479 356 c 0
 480 354 483 353 486 353 c 0
 490 353 495 355 495 358 c 0
 498 364 498 372 500 379 c 0
 501 386 502 393 502 400 c 0
 502 427 494 451 479 472 c 0
 451 514 405 560 349 560 c 0
 343 559 337 549 337 548 c 0
 355 479 395 460 433 414 c 1
513 292 m 1
 513 285 l 1xe0
 527 253 535 219 537 184 c 0
 537 175 538 167 538 158 c 0
 538 120 534 78 531 73 c 0
 525 63 519 58 513 58 c 0
 512 58 510 59 508 60 c 0
 502 63 496 71 496 82 c 0
 496 84 497 85 497 88 c 0
 502 114 504 139 504 165 c 0
 504 208 496 248 477 288 c 0xd0
 428 387 378 403 332 407 c 1
 332 47 l 2
 332 -48 209 -141 109 -141 c 0
 48 -141 0 -106 0 -47 c 0
 0 50 99 141 222 141 c 0
 255 141 283 132 302 115 c 1
 303 913 l 1
 303 913 308 923 314 923 c 0
 319 923 331 914 332 906 c 0
 347 816 396 802 441 753 c 0
 501 688 522 663 531 608 c 0
 533 600 533 592 533 583 c 0
 533 548 523 511 515 488 c 1
 522 472 528 456 531 436 c 0
 533 425 534 415 534 404 c 0
 534 353 515 303 513 297 c 2
 513 292 l 1
EndSplineSet
Validated: 1
EndChar

StartChar: uniECAC
Encoding: 60588 60588 10
Width: 332
Flags: W
HStem: -880 1021<8 254.5>
VStem: 0 30<-336 -114 -336 -47> 207 33<-338 -325.5> 209 37<-127 -122.5>
LayerCount: 2
Fore
SplineSet
332 47 m 0xe0
 332 -5 295 -57 244 -93 c 1
 245 -101 246 -109 246 -117 c 2
 246 -127 l 1xd0
 242 -184 238 -194 226 -217 c 2
 222 -223 l 2
 220 -226 220 -227 220 -229 c 0
 220 -232 222 -235 222 -237 c 0
 226 -246 240 -285 240 -332 c 0
 240 -344 239 -355 238 -367 c 0
 234 -389 229 -407 220 -423 c 1
 228 -447 239 -487 239 -525 c 0
 239 -534 239 -543 238 -551 c 0
 228 -609 206 -634 143 -703 c 0
 96 -754 45 -768 30 -862 c 0
 29 -870 17 -880 11 -880 c 0
 5 -880 0 -868 0 -868 c 1
 0 -47 l 2
 0 50 99 141 222 141 c 0
 287 141 332 104 332 47 c 0xe0
194 -570 m 0
 205 -551 209 -537 209 -525 c 0
 209 -518 207 -513 206 -506 c 0
 203 -497 199 -478 193 -461 c 1
 181 -477 165 -495 143 -518 c 0
 96 -569 50 -584 35 -677 c 0
 35 -678 35 -679 37 -680 c 0
 88 -680 143 -657 194 -570 c 0
35 -484 m 0
 35 -488 39 -496 47 -496 c 2
 51 -496 l 2
 107 -496 155 -448 183 -405 c 0
 198 -382 207 -356 207 -329 c 0
 207 -322 206 -314 205 -307 c 0
 203 -299 203 -292 201 -286 c 0
 200 -283 194 -281 190 -281 c 0
 187 -281 184 -281 183 -284 c 0
 168 -307 154 -324 136 -344 c 0
 95 -392 54 -412 35 -484 c 0
209 -124 m 0xd0
 209 -121 209 -118 208 -114 c 1
 176 -131 141 -141 109 -141 c 0
 78 -141 50 -131 30 -114 c 1
 30 -336 l 1
 76 -332 125 -312 181 -212 c 0
 202 -175 209 -149 209 -124 c 0xd0
EndSplineSet
Validated: 1
EndChar

StartChar: uniE1D2
Encoding: 57810 57810 11
Width: 459
Flags: W
HStem: -125 25<253 263.5 253 313> 123 25<190 244>
VStem: 0 117<36 50> 341 118<-25 10>
LayerCount: 2
Fore
SplineSet
235 148 m 0
 336 148 459 90 459 13 c 0
 459 -63 402 -125 224 -125 c 0
 62 -125 0 -60 0 13 c 0
 0 87 90 148 235 148 c 0
121 80 m 0
 118 71 117 62 117 53 c 0
 117 19 134 -18 155 -43 c 0
 162 -52 170 -60 178 -67 c 0
 193 -80 211 -90 229 -96 c 0
 239 -99 248 -100 258 -100 c 0
 269 -100 280 -99 291 -96 c 0
 318 -89 334 -70 339 -43 c 0
 340 -37 341 -30 341 -23 c 0
 341 43 281 123 207 123 c 0
 173 123 133 117 121 80 c 0
EndSplineSet
Validated: 1
EndChar

StartChar: uniE1D3
Encoding: 57811 57811 12
Width: 341
Flags: W
HStem: -145 45<80.5 99.5 75 207> 97 48<244 244.5 140.5 267>
VStem: 0 34<-55 -38.5 -55 -19> 311 30<118 875>
LayerCount: 2
Fore
SplineSet
112 -145 m 0
 49 -145 0 -110 0 -49 c 0
 0 11 54 145 227 145 c 0
 262 145 291 135 311 118 c 1
 311 875 l 1
 341 875 l 1
 341 48 l 2
 341 9 302 -145 112 -145 c 0
139 52 m 0
 59 6 34 -26 34 -51 c 0
 34 -59 37 -67 41 -74 c 0
 49 -88 63 -100 87 -100 c 0
 112 -100 148 -88 200 -53 c 0
 281 0 305 28 305 51 c 0
 305 59 302 66 298 73 c 0
 290 87 278 97 256 97 c 0
 232 97 196 85 139 52 c 0
EndSplineSet
Validated: 1
EndChar

StartChar: uniE1D4
Encoding: 57812 57812 13
Width: 341
Flags: W
HStem: -145 45<95.5 99.5 75 207.5> 97 48<244 260.5 140.5 267>
VStem: 0 30<-875 -117 -875 -48> 305 36<39.5 55>
LayerCount: 2
Fore
SplineSet
227 145 m 0
 294 145 341 107 341 48 c 0
 341 10 303 -145 112 -145 c 0
 79 -145 50 -135 30 -117 c 1
 30 -875 l 1
 0 -875 l 1
 0 -48 l 2
 0 12 54 145 227 145 c 0
200 -53 m 0
 281 0 305 28 305 51 c 0
 305 59 302 66 298 73 c 0
 290 87 278 97 256 97 c 0
 232 97 196 85 139 52 c 0
 59 6 34 -26 34 -51 c 0
 34 -59 37 -67 41 -74 c 0
 49 -88 63 -100 87 -100 c 0
 112 -100 148 -88 200 -53 c 0
EndSplineSet
Validated: 1
EndChar

StartChar: uniE1D5
Encoding: 57813 57813 14
Width: 332
Flags: W
HStem: -141 1016<78.5 332>
VStem: 302 30<115 875>
LayerCount: 2
Fore
SplineSet
302 115 m 1
 302 875 l 1
 332 875 l 1
 332 47 l 2
 332 -48 209 -141 109 -141 c 0
 48 -141 0 -106 0 -47 c 0
 0 50 99 141 222 141 c 0
 255 141 283 132 302 115 c 1
EndSplineSet
Validated: 1
EndChar

StartChar: uniE1D6
Encoding: 57814 57814 15
Width: 332
Flags: W
HStem: -875 1016<0 254.5 0 254.5>
VStem: 0 30<-875 -306 -306 -114 -875 -47>
LayerCount: 2
Fore
SplineSet
222 141 m 0
 287 141 332 104 332 47 c 0
 332 -48 209 -141 109 -141 c 0
 78 -141 50 -131 30 -114 c 1
 30 -875 l 1
 0 -875 l 1
 0 -306 l 2
 0 -47 0 -47 0 -47 c 2
 0 50 99 141 222 141 c 0
EndSplineSet
Validated: 1
EndChar

StartChar: uniE1D7
Encoding: 57815 57815 16
Width: 566
Flags: W
HStem: -138 1011<78.5 321.5>
VStem: 302 30<118 611> 523 43<217.5 269.5>
LayerCount: 2
Fore
SplineSet
451 594 m 0
 514 494 566 376 566 251 c 0
 566 173 540 78 540 78 c 2
 535 61 523 57 514 58 c 2
 512 59 l 2
 506 63 496 72 496 88 c 0
 496 92 497 97 499 103 c 0
 516 148 523 195 523 240 c 0
 523 299 514 356 499 390 c 0
 468 463 394 573 332 611 c 1
 332 50 l 2
 332 -45 209 -138 109 -138 c 0
 48 -138 0 -103 0 -44 c 0
 0 53 99 144 222 144 c 0
 255 144 283 135 302 118 c 1
 302 623 l 1
 302 623 302 623 302 623 c 1
 302 858 l 2
 302 860 302 862 302 863 c 2
 302 864 l 1
 302 864 l 1
 303 871 307 873 312 873 c 0
 331 873 339 867 342 851 c 0
 358 755 400 673 451 594 c 0
EndSplineSet
Validated: 37
EndChar

StartChar: uniE1D8
Encoding: 57816 57816 17
Width: 332
Flags: W
HStem: -882 1023<9.5 254.5>
VStem: 0 30<-879 -878 -879 -867 -621 -114> 261 45<-274.5 -222.5>
LayerCount: 2
Fore
SplineSet
275 -68 m 0
 276 -70 277 -72 278 -75 c 0
 286 -107 306 -178 306 -256 c 0
 306 -381 245 -500 182 -599 c 0
 131 -678 57 -765 40 -860 c 0
 39 -869 36 -875 30 -878 c 1
 30 -879 l 1
 29 -879 l 2
 24 -881 19 -882 11 -882 c 0
 8 -882 5 -881 3 -879 c 2
 0 -879 l 1
 0 -867 l 2
 0 -47 0 -47 0 -47 c 2
 0 50 99 141 222 141 c 0
 287 141 332 104 332 47 c 0
 332 6 309 -35 275 -68 c 0
221 -422 m 0
 236 -388 261 -304 261 -245 c 0
 261 -200 254 -150 240 -108 c 0
 239 -104 238 -101 237 -98 c 1
 198 -124 152 -141 109 -141 c 0
 78 -141 50 -131 30 -114 c 1
 30 -621 l 1
 142 -574 187 -500 221 -422 c 0
EndSplineSet
Validated: 1
EndChar

StartChar: uniE1D9
Encoding: 57817 57817 18
Width: 581
Flags: W
HStem: -138 1011<78.5 322>
VStem: 302 30<118 474> 539 38<456.5 476> 541 40<167.5 185 185 207 161 208>
LayerCount: 2
Fore
SplineSet
552 327 m 0xd0
 570 290 581 249 581 207 c 2
 581 185 l 2
 581 137 578 80 574 75 c 0
 568 62 561 58 554 58 c 0
 551 58 549 59 546 60 c 0
 539 62 532 70 532 84 c 0
 532 87 532 89 533 93 c 0
 538 123 541 153 541 182 c 0
 541 234 532 283 509 331 c 0
 449 453 387 470 332 474 c 1xd0
 332 50 l 2
 332 -45 209 -138 109 -138 c 0
 48 -138 0 -103 0 -44 c 0
 0 53 99 144 222 144 c 0
 255 144 283 135 302 118 c 1
 302 475 l 1
 302 475 l 1
 302 872 l 1
 302 872 313 873 319 873 c 0
 325 873 337 871 339 860 c 0
 356 754 412 738 466 680 c 0
 538 602 564 574 574 506 c 0
 576 494 577 483 577 470 c 0xe0
 577 409 555 349 552 343 c 0
 551 340 551 338 551 336 c 0
 551 332 552 330 552 327 c 0xd0
538 440 m 0
 539 447 539 453 539 460 c 0
 539 492 530 523 512 549 c 0
 479 598 425 654 364 654 c 2
 356 654 l 2
 348 654 342 648 342 644 c 0
 342 643 342 642 343 641 c 0
 364 559 410 535 457 481 c 0
 478 457 495 437 511 412 c 0
 513 409 515 408 518 408 c 0
 523 408 530 411 531 414 c 0
 536 422 536 432 538 440 c 0
EndSplineSet
Validated: 1
EndChar

StartChar: uniE1DA
Encoding: 57818 57818 19
Width: 332
Flags: W
HStem: -883 1024<15 254.5>
VStem: 0 30<-485 -114 -485 -47> 248 38<-486.5 -467> 250 42
LayerCount: 2
Fore
SplineSet
282 -84 m 0xd0
 298 -164 297 -262 261 -337 c 0
 261 -340 260 -342 260 -346 c 0
 260 -349 260 -351 261 -353 c 0
 264 -359 286 -419 286 -480 c 0
 286 -493 285 -505 283 -516 c 0xe0
 259 -673 62 -716 38 -870 c 0
 36 -881 24 -883 18 -883 c 0
 12 -883 1 -882 1 -882 c 1
 1 -879 l 1
 0 -879 l 1
 0 -47 0 -47 0 -47 c 2
 0 50 99 141 222 141 c 0
 287 141 332 104 332 47 c 0
 332 6 310 -35 276 -67 c 1
 278 -71 280 -76 282 -84 c 0xd0
221 -559 m 0xe0
 239 -533 248 -503 248 -470 c 0
 248 -464 248 -457 247 -450 c 0
 245 -442 245 -432 240 -425 c 0
 239 -421 232 -418 227 -418 c 0
 224 -418 222 -419 220 -422 c 0
 204 -448 187 -468 166 -491 c 0
 119 -546 63 -569 42 -651 c 0
 41 -652 41 -653 41 -654 c 0
 41 -659 47 -664 55 -664 c 2
 63 -664 l 2
 124 -664 188 -608 221 -559 c 0xe0
218 -341 m 0xd0
 255 -265 256 -177 242 -95 c 1
 202 -123 153 -141 109 -141 c 0
 78 -141 50 -131 30 -114 c 1
 30 -485 l 1
 88 -481 158 -464 218 -341 c 0xd0
EndSplineSet
Validated: 33
EndChar

StartChar: uniE1DB
Encoding: 57819 57819 20
Width: 563
Flags: W
HStem: -138 1161<78.5 317> 1011 12<302 317>
VStem: 302 29<118 450> 523 36<438 452 417.5 456.5> 526 37<166 178 151.5 204>
LayerCount: 2
Fore
SplineSet
562 201 m 0xa8
 562 192 563 183 563 173 c 0
 563 130 559 84 556 78 c 0
 549 67 542 62 536 62 c 0
 534 62 532 63 530 64 c 0
 523 67 517 76 517 88 c 0
 517 90 518 92 518 95 c 0
 523 124 526 152 526 180 c 0
 526 228 517 273 495 317 c 0
 440 429 383 446 331 450 c 1
 331 50 l 2
 331 -45 208 -138 109 -138 c 0
 48 -138 0 -103 0 -44 c 0
 0 53 99 144 222 144 c 0
 254 144 282 135 302 118 c 1
 302 1011 l 1
 302 1011 308 1023 314 1023 c 0
 320 1023 333 1013 334 1004 c 0x68
 351 904 405 888 455 834 c 0
 522 761 545 734 556 673 c 0
 558 664 558 655 558 645 c 0
 558 606 547 565 538 539 c 1
 546 522 552 504 556 481 c 0
 558 469 559 458 559 446 c 0
 559 389 538 334 536 327 c 0
 535 325 535 323 535 321 c 0
 535 318 535 316 536 314 c 0xb0
 551 278 560 240 562 201 c 0xa8
521 418 m 0xb0
 522 426 523 434 523 442 c 0
 523 471 514 498 498 522 c 0
 467 568 416 619 353 619 c 0
 347 618 340 607 340 606 c 0
 360 529 404 508 447 457 c 1
 452 452 l 2
 469 432 483 415 498 393 c 0
 499 390 502 389 505 389 c 0
 510 389 515 392 516 395 c 0
 519 402 519 410 521 418 c 0xb0
522 624 m 0
 523 631 525 637 525 645 c 0
 525 658 521 673 510 693 c 0
 455 786 396 810 341 810 c 1
 357 713 406 696 455 642 c 0
 478 617 496 598 510 580 c 1
 515 597 520 614 522 624 c 0
EndSplineSet
Validated: 1
EndChar

StartChar: uniE1DC
Encoding: 57820 57820 21
Width: 332
Flags: W
HStem: -1048 1189<9 254.5>
VStem: 0 30<-444 -114 -444 -47> 230 37<-445.5 -432> 232 41<-211 -200 -211 -192.5>
LayerCount: 2
Fore
SplineSet
222 141 m 0xe0
 287 141 332 104 332 47 c 0
 332 -2 299 -50 254 -86 c 1
 260 -104 273 -157 273 -200 c 2
 273 -211 l 1xd0
 269 -275 264 -286 251 -311 c 2
 247 -318 l 2
 245 -321 244 -323 244 -325 c 0
 244 -328 247 -331 247 -334 c 0
 251 -344 267 -387 267 -439 c 0
 267 -452 266 -465 264 -478 c 0
 260 -502 254 -522 244 -540 c 1
 253 -567 266 -611 266 -654 c 0
 266 -664 266 -674 264 -683 c 0
 253 -747 229 -775 159 -851 c 0
 107 -908 50 -924 33 -1028 c 0
 32 -1037 19 -1048 12 -1048 c 0
 6 -1048 0 -1035 0 -1035 c 1
 0 -47 l 2
 0 50 99 141 222 141 c 0xe0
232 -208 m 0xd0
 232 -177 222 -149 214 -111 c 1
 180 -130 143 -141 109 -141 c 0
 78 -141 50 -131 30 -114 c 1
 30 -444 l 1
 82 -439 138 -419 201 -306 c 0
 224 -265 232 -236 232 -208 c 0xd0
159 -646 m 0xe0
 107 -703 56 -719 39 -823 c 0
 39 -824 39 -825 41 -826 c 0
 98 -826 159 -800 216 -704 c 0
 228 -683 232 -667 232 -654 c 0
 232 -646 230 -640 229 -633 c 0
 226 -622 221 -601 215 -582 c 1
 201 -600 183 -620 159 -646 c 0xe0
151 -453 m 0
 106 -506 60 -528 39 -608 c 0
 39 -613 43 -621 52 -621 c 2
 57 -621 l 2
 119 -621 172 -568 203 -520 c 0
 220 -495 230 -466 230 -436 c 0
 230 -428 229 -419 228 -411 c 0
 226 -403 226 -395 223 -388 c 0
 222 -385 216 -382 211 -382 c 0
 208 -382 205 -383 203 -386 c 0
 187 -411 171 -430 151 -453 c 0
EndSplineSet
Validated: 1
EndChar

StartChar: uniE1E7
Encoding: 57831 57831 22
Width: 100
Flags: W
HStem: -50 100<36 64>
VStem: 0 100<-14 14>
LayerCount: 2
Fore
SplineSet
100 0 m 0
 100 -28 78 -50 50 -50 c 0
 22 -50 0 -28 0 0 c 0
 0 28 22 50 50 50 c 0
 78 50 100 28 100 0 c 0
EndSplineSet
Validated: 1
EndChar

StartChar: uniE0A2
Encoding: 57506 57506 23
Width: 422
Flags: W
HStem: -125 23<232.5 242 232.5 288> 103 22<174.5 224.5>
VStem: 0 108<23 36> 314 108<-33 -1>
LayerCount: 2
Fore
SplineSet
216 125 m 0
 309 125 422 73 422 2 c 0
 422 -68 370 -125 206 -125 c 0
 57 -125 0 -65 0 2 c 0
 0 70 83 125 216 125 c 0
111 63 m 0
 109 55 108 47 108 39 c 0
 108 7 123 -27 143 -50 c 0
 149 -58 156 -65 164 -72 c 0
 178 -84 194 -93 211 -98 c 0
 220 -101 228 -102 237 -102 c 0
 247 -102 258 -101 268 -98 c 0
 293 -92 307 -75 312 -50 c 0
 313 -44 314 -38 314 -31 c 0
 314 29 259 103 190 103 c 0
 159 103 122 98 111 63 c 0
EndSplineSet
Validated: 1
EndChar

StartChar: uniE0A3
Encoding: 57507 57507 24
Width: 295
Flags: W
HStem: -125 38<69.5 86 64.5 179.5> 84 41<211 225 121.5 230.5>
VStem: 0 29<-47.5 -33 -47.5 -16> 264 31<34 47.5>
LayerCount: 2
Fore
SplineSet
97 -125 m 0
 42 -125 0 -95 0 -42 c 0
 0 10 47 125 196 125 c 0
 254 125 295 93 295 42 c 0
 295 9 262 -125 97 -125 c 0
173 -46 m 0
 243 0 264 24 264 44 c 0
 264 51 261 57 258 63 c 0
 251 75 240 84 221 84 c 0
 201 84 170 74 120 45 c 0
 51 5 29 -22 29 -44 c 0
 29 -51 32 -58 35 -64 c 0
 42 -76 54 -87 75 -87 c 0
 97 -87 128 -76 173 -46 c 0
EndSplineSet
Validated: 1
EndChar

StartChar: uniE0A4
Encoding: 57508 57508 25
Width: 295
Flags: W
HStem: -125 250<70 226.5>
VStem: 0 295<-0.5 1>
LayerCount: 2
Fore
SplineSet
97 -125 m 0
 43 -125 0 -94 0 -42 c 0
 0 44 88 125 198 125 c 0
 255 125 295 93 295 42 c 0
 295 -43 186 -125 97 -125 c 0
EndSplineSet
Validated: 1
EndChar

StartChar: uniE240
Encoding: 57920 57920 27
Width: 223
Flags: W
HStem: -20 20G<-14 0>
VStem: -14 14<-62.9724 0> 170 39<-663.075 -452.38>
LayerCount: 2
Fore
SplineSet
0 0 m 1
 0 -198 209 -336 209 -534 c 0
 209 -605 193 -676 167 -742 c 0
 163 -749 156 -753 149 -753 c 0
 137 -753 125 -743 128 -728 c 0
 154 -667 170 -601 170 -534 c 0
 170 -429 73 -325 0 -250 c 1
 -14 -250 l 1
 -14 0 l 1
 0 0 l 1
EndSplineSet
EndChar

StartChar: uniE241
Encoding: 57921 57921 28
Width: 269
Flags: W
HStem: 0 21G<-14 0>
VStem: -14 14<0 54.8289> 230 39<435.535 620.602>
LayerCount: 2
Fore
SplineSet
0 0 m 1
 -14 0 l 1
 -14 250 l 1
 0 250 l 1
 99 308 230 397 230 509 c 0
 230 566 215 621 190 673 c 0
 187 688 199 698 211 698 c 0
 218 698 224 695 228 688 c 0
 253 632 269 571 269 509 c 0
 269 305 0 204 0 0 c 1
EndSplineSet
EndChar

StartChar: uniE242
Encoding: 57922 57922 29
Width: 223
Flags: W
HStem: -20 20G<-14 0>
VStem: -14 14<-500 -425 -267.14 -213 -56.3101 0> 163 39<-521.18 -391.049> 170 39<-797.193 -606.045>
LayerCount: 2
Fore
SplineSet
0 0 m 1xd0
 0 -178 202 -293 202 -471 c 0xe0
 202 -504 193 -536 179 -566 c 1
 197 -603 209 -642 209 -684 c 0
 209 -747 193 -809 167 -867 c 0
 163 -874 156 -878 149 -878 c 0
 137 -878 125 -868 128 -853 c 0
 154 -800 170 -743 170 -684 c 0
 170 -586 73 -492 0 -425 c 1
 0 -500 l 1
 -14 -500 l 1
 -14 0 l 1
 0 0 l 1xd0
155 -522 m 1
 161 -506 163 -488 163 -471 c 0
 163 -374 70 -280 0 -213 c 1
 0 -333 93 -422 155 -522 c 1
EndSplineSet
EndChar

StartChar: uniE243
Encoding: 57923 57923 30
Width: 269
Flags: W
HStem: 0 21G<-14 0>
VStem: -14 14<0 48.5673 205 274.79 430 500> 216 39<369.906 512.438> 230 39<595.247 737.459>
LayerCount: 2
Fore
SplineSet
0 205 m 1xe0
 93 256 216 336 216 440 c 0
 216 465 211 490 202 513 c 1
 122 422 0 350 0 225 c 2
 0 205 l 1xe0
269 665 m 0xd0
 269 621 253 583 230 549 c 1xd0
 246 515 255 478 255 440 c 0xe0
 255 258 0 182 0 0 c 1
 -14 0 l 1
 -14 500 l 1
 0 500 l 1
 0 430 l 1
 99 479 230 558 230 665 c 0
 230 687 225 708 217 728 c 0
 214 743 226 753 238 753 c 0
 266 753 269 689 269 665 c 0xd0
EndSplineSet
EndChar

StartChar: uniE244
Encoding: 57924 57924 31
Width: 209
Flags: W
HStem: -20 20G<-14 0>
VStem: -14 14<-750 -647 -486.323 -430 -268.924 -213 -55.5254 0> 153 39<-506.124 -389.584> 163 39<-724.139 -589.918> 170 39<-988.937 -808.513>
LayerCount: 2
Fore
SplineSet
0 -213 m 1xe0
 0 -218 l 2
 0 -331 88 -414 148 -507 c 1
 152 -495 153 -481 153 -468 c 0
 153 -374 66 -281 0 -213 c 1xe0
0 0 m 1
 0 -175 192 -293 192 -468 c 0xe0
 192 -497 186 -526 174 -552 c 1
 191 -587 202 -624 202 -664 c 0xd0
 202 -700 194 -736 179 -769 c 1
 197 -804 209 -840 209 -881 c 0
 209 -941 193 -1001 167 -1055 c 0
 163 -1062 156 -1065 149 -1065 c 0
 137 -1065 125 -1056 128 -1041 c 1
 154 -992 170 -937 170 -881 c 0xc8
 170 -789 73 -705 0 -647 c 1
 0 -750 l 1
 -14 -750 l 1
 -14 0 l 1
 0 0 l 1
0 -430 m 1
 0 -435 l 2
 0 -549 91 -632 153 -725 c 1xe0
 160 -705 163 -685 163 -664 c 0xd0
 163 -573 70 -489 0 -430 c 1
EndSplineSet
EndChar

StartChar: uniE245
Encoding: 57925 57925 32
Width: 269
Flags: W
HStem: 0 21G<-14 0>
VStem: -14 14<0 47.7977 205 269.315 425 485.021 645 750> 211 39<365.431 502.638> 224 39<578.548 726.382 789.649 939.853>
LayerCount: 2
Fore
SplineSet
0 205 m 1xe0
 91 255 211 333 211 434 c 0
 211 457 209 481 203 504 c 1
 125 414 0 344 0 220 c 2
 0 205 l 1xe0
230 866 m 0
 230 891 206 940 242 940 c 0
 268 940 269 889 269 866 c 0
 269 828 257 795 238 765 c 1
 254 727 263 687 263 646 c 0xd0
 263 608 251 575 233 545 c 1
 244 509 250 472 250 434 c 0
 250 255 0 179 0 0 c 1
 -14 0 l 1
 -14 750 l 1
 0 750 l 1
 0 645 l 1
 99 689 230 762 230 866 c 0
0 425 m 1
 97 470 224 543 224 646 c 0
 224 674 219 701 210 727 c 1
 131 635 0 567 0 440 c 2
 0 425 l 1
EndSplineSet
EndChar

StartChar: uniE4E3
Encoding: 58595 58595 33
Width: 283
Flags: W
HStem: -135 144<18.5 256 26 256>
VStem: 0 282<-109 -17 -116 -9.5>
LayerCount: 2
Fore
SplineSet
282 -109 m 2
 282 -123 270 -135 256 -135 c 2
 26 -135 l 2
 11 -135 0 -123 0 -109 c 2
 0 -17 l 2
 0 -2 11 9 26 9 c 2
 256 9 l 2
 270 9 282 -2 282 -17 c 2
 282 -109 l 2
EndSplineSet
Validated: 1
EndChar

StartChar: uniE4E4
Encoding: 58596 58596 34
Width: 283
Flags: W
HStem: -2 144<18.5 256 26 256>
VStem: 0 282<24 116 17 123.5>
LayerCount: 2
Fore
SplineSet
282 24 m 2
 282 10 270 -2 256 -2 c 2
 26 -2 l 2
 11 -2 0 10 0 24 c 2
 0 116 l 2
 0 131 11 142 26 142 c 2
 256 142 l 2
 270 142 282 131 282 116 c 2
 282 24 l 2
EndSplineSet
Validated: 1
EndChar

StartChar: uniE4E5
Encoding: 58597 58597 35
Width: 238
Flags: W
HStem: -142 69<-3.88543 136.663>
VStem: -23 75<-229.5 -93.9944> -4 120<-9 95.5> 121 120<167.5 272>
LayerCount: 2
Fore
SplineSet
-23 -113 m 0xd0
 -23 -87 -13 -73 13 -73 c 0
 47 -73 98 -88 143 -110 c 1
 6 54 l 2
 -1 62 -4 71 -4 79 c 0
 -4 112 45 143 82 175 c 0
 108 197 121 229 121 260 c 0
 121 284 113 307 97 327 c 2
 58 373 l 2
 56 376 55 379 55 382 c 0
 55 389 62 396 69 396 c 0
 72 396 76 395 79 391 c 2
 231 209 l 2
 238 201 241 192 241 184 c 0
 241 151 192 120 155 88 c 0
 129 66 116 34 116 3 c 0xb0
 116 -21 124 -44 140 -64 c 2
 227 -168 l 2
 229 -171 230 -173 230 -176 c 0
 230 -183 223 -190 216 -190 c 0
 213 -190 209 -189 206 -185 c 0
 187 -163 140 -142 104 -142 c 0
 64 -142 52 -171 52 -212 c 0
 52 -247 63 -287 80 -308 c 0
 84 -313 80 -319 75 -319 c 0
 73 -319 71 -319 70 -317 c 0
 24 -262 -23 -167 -23 -113 c 0xd0
EndSplineSet
EndChar

StartChar: uniE4E6
Encoding: 58598 58598 36
Width: 250
Flags: W
HStem: 54 51<62 188.585>
VStem: -2 128<109.536 184.912> 76 48<-258.921 -230.267>
LayerCount: 2
Fore
SplineSet
76 -250 m 1xa0
 192 77 l 1
 157 65 122 54 85 54 c 0
 39 54 -2 88 -2 134 c 0
 -2 173 29 205 69 205 c 0
 95 205 118 189 126 165 c 0xc0
 136 137 132 105 161 105 c 0
 178 105 219 159 226 175 c 0
 231 186 246 185 250 175 c 1
 124 -250 l 1
 117 -256 108 -259 100 -259 c 0
 92 -259 83 -256 76 -250 c 1xa0
EndSplineSet
EndChar

StartChar: uniE4E7
Encoding: 58599 58599 37
Width: 301
Flags: W
HStem: -196 51<39 167.577> 54 51<117 243.932>
VStem: -25 128<-140.464 -65.0879> 53 128<109.536 184.912> 71 47<-508.921 -477.11>
LayerCount: 2
Fore
SplineSet
71 -500 m 1xc8
 171 -173 l 1
 136 -186 99 -196 62 -196 c 0
 16 -196 -25 -162 -25 -116 c 0
 -25 -77 6 -45 46 -45 c 0
 72 -45 95 -61 103 -85 c 0xe0
 113 -113 109 -145 138 -145 c 0
 155 -145 195 -92 200 -75 c 2
 247 77 l 1
 213 65 177 54 140 54 c 0
 94 54 53 88 53 134 c 0
 53 173 84 205 124 205 c 0
 150 205 173 189 181 165 c 0xd0
 191 137 187 105 216 105 c 0
 233 105 269 159 276 175 c 0
 280 186 296 186 300 175 c 1
 118 -500 l 1
 111 -506 103 -509 95 -509 c 0
 87 -509 78 -506 71 -500 c 1xc8
EndSplineSet
EndChar

StartChar: uniE4E8
Encoding: 58600 58600 38
Width: 326
Flags: W
HStem: -196 51<10 137.728> 54 51<78 205.64> 304 51<147 271.614>
VStem: -54 127<-140.464 -65.0879> 14 128<109.536 184.125> 59 47<-508.921 -473.302> 83 128<359.536 434.912>
CounterMasks: 1 e0
LayerCount: 2
Fore
SplineSet
59 -500 m 1xe4
 145 -172 l 1
 109 -185 72 -196 33 -196 c 0
 -13 -196 -54 -162 -54 -116 c 0
 -54 -77 -23 -45 17 -45 c 0
 43 -45 65 -61 73 -85 c 0xf0
 83 -113 80 -145 109 -145 c 0
 126 -145 166 -91 171 -73 c 2
 210 77 l 1
 175 64 138 54 101 54 c 0
 55 54 14 88 14 134 c 0
 14 173 46 205 86 205 c 0
 112 205 134 189 142 165 c 0xe8
 152 137 149 105 178 105 c 0
 195 105 232 158 236 175 c 2
 276 327 l 1
 242 315 206 304 170 304 c 0
 124 304 83 338 83 384 c 0
 83 423 114 455 154 455 c 0
 180 455 203 439 211 415 c 0xe2
 221 387 217 355 246 355 c 0
 262 355 295 409 301 425 c 0
 305 436 321 436 325 425 c 1
 106 -500 l 1xe4
 99 -506 91 -509 83 -509 c 0xe2
 75 -509 66 -506 59 -500 c 1xe4
EndSplineSet
EndChar

StartChar: uniE052
Encoding: 57426 57426 39
Width: 612
Flags: W
HStem: -830.664 13.5986<244.623 299.982> -633.465 13.5996<279.047 325.869> -626.664 38.5322<152.87 297.411> -522.398 190.399<102.567 194.792> -252.665 36.2656<227.466 392.133> -241.332 38.5322<430.666 469.16>
VStem: 0.000976562 65.7324<-29.7836 152.558> 29.4668 199.467<-488.204 -372.914> 165.466 52.1348<-39.5428 90.8924> 190.4 43.0664<673.298 899.599> 208.534 22.667<-808.404 -752.418> 240.268 22.666<-692.132 -646.993> 321.867 24.9336<-802.089 -752.325> 337.733 22.667<-695.202 -641.683> 392.133 38.5332<-478.244 -248.132 -202.8 -10.0011> 421.6 65.7324<768.607 951.599> 548.534 63.4648<-105.643 45.2291>
LayerCount: 2
Fore
SplineSet
242.534179688 531.599609375 m 0xba1280
 207.778320312 650.977539062 190.400390625 771.110351562 190.400390625 891.998046875 c 0xba5280
 190.400390625 949.419921875 203.24609375 1003.8203125 228.93359375 1055.19921875 c 0
 254.62109375 1106.57617188 290.1328125 1149.64355469 335.466796875 1184.39648438 c 0
 336.978515625 1185.91015625 339.245117188 1186.6640625 342.266601562 1186.6640625 c 0
 345.287109375 1186.6640625 347.5546875 1185.91015625 349.06640625 1184.39648438 c 0
 386.846679688 1140.57714844 419.333007812 1082.3984375 446.534179688 1009.86523438 c 0
 473.733398438 937.33203125 487.33203125 873.110351562 487.33203125 817.19921875 c 0xb91180
 487.33203125 752.220703125 471.466796875 691.776367188 439.732421875 635.866210938 c 0
 408 579.954101562 363.420898438 519.510742188 306 454.533203125 c 1
 324.1328125 394.087890625 343.021484375 323.8203125 362.666992188 243.732421875 c 1
 369.465820312 243.732421875 l 2
 440.48828125 243.732421875 498.666015625 218.80078125 543.999023438 168.93359375 c 0
 589.333007812 119.065429688 611.999023438 61.6455078125 611.999023438 -3.33203125 c 0
 611.999023438 -84.9326171875 577.999023438 -151.420898438 510 -202.799804688 c 0
 485.8203125 -219.419921875 459.377929688 -232.266601562 430.666015625 -241.33203125 c 1
 430.666015625 -259.46484375 l 1
 430.666015625 -277.598632812 l 2
 430.666015625 -327.465820312 429.912109375 -371.287109375 428.400390625 -409.065429688 c 0
 423.866210938 -469.51171875 402.333007812 -520.887695312 363.798828125 -563.19921875 c 0
 325.265625 -605.510742188 278.044921875 -626.6640625 222.1328125 -626.6640625 c 0
 169.24609375 -626.6640625 123.912109375 -607.3984375 86.1337890625 -568.865234375 c 0
 48.35546875 -530.33203125 29.466796875 -484.62109375 29.466796875 -431.732421875 c 0
 29.466796875 -404.533203125 40.4208984375 -381.110351562 62.333984375 -361.46484375 c 0
 84.24609375 -341.819335938 109.555664062 -331.999023438 138.266601562 -331.999023438 c 0
 163.955078125 -331.999023438 185.487304688 -341.819335938 202.8671875 -361.46484375 c 0
 220.24609375 -381.110351562 228.93359375 -404.533203125 228.93359375 -431.732421875 c 0xb51280
 228.93359375 -455.91015625 219.8671875 -477.065429688 201.733398438 -495.19921875 c 0
 183.599609375 -513.33203125 162.4453125 -522.3984375 138.266601562 -522.3984375 c 0
 126.1796875 -522.3984375 114.088867188 -519.375976562 102 -513.33203125 c 1
 129.201171875 -563.19921875 170 -588.131835938 224.400390625 -588.131835938 c 0
 269.733398438 -588.131835938 307.888671875 -569.999023438 338.8671875 -533.732421875 c 0
 369.845703125 -497.463867188 386.846679688 -454.3984375 389.8671875 -404.533203125 c 0
 391.37890625 -366.752929688 392.1328125 -324.444335938 392.1328125 -277.598632812 c 2
 392.1328125 -248.131835938 l 1
 367.955078125 -251.153320312 343.021484375 -252.665039062 317.333984375 -252.665039062 c 0
 228.1796875 -252.665039062 153 -217.911132812 91.7998046875 -148.3984375 c 0
 30.6005859375 -78.8876953125 0.0009765625 4.22265625 0.0009765625 100.93359375 c 0
 0.0009765625 122.087890625 2.267578125 143.62109375 6.80078125 165.534179688 c 0
 11.3330078125 187.4453125 15.8671875 206.333007812 20.3994140625 222.200195312 c 0
 24.9345703125 238.06640625 34.0009765625 257.33203125 47.6005859375 280 c 0
 61.201171875 302.666015625 71.0224609375 319.666015625 77.0673828125 331 c 0
 83.1123046875 342.333007812 96.3330078125 360.466796875 116.733398438 385.399414062 c 0
 137.133789062 410.333007812 149.978515625 426.19921875 155.267578125 432.999023438 c 0
 160.5546875 439.798828125 175.2890625 456.799804688 199.466796875 483.999023438 c 0
 223.64453125 511.200195312 238 527.065429688 242.534179688 531.599609375 c 0xba1280
428.400390625 -202.799804688 m 1x941080
 463.154296875 -192.221679688 491.866210938 -171.444335938 514.533203125 -140.465820312 c 0
 537.200195312 -109.487304688 548.534179688 -76.6220703125 548.534179688 -41.8662109375 c 0
 548.534179688 3.4658203125 533.799804688 43.888671875 504.333007812 79.3994140625 c 0
 474.866210938 114.912109375 435.956054688 135.6875 387.599609375 141.733398438 c 1
 411.77734375 25.37890625 425.376953125 -89.4658203125 428.400390625 -202.799804688 c 1x941080
319.600585938 -216.399414062 m 0x9a3080
 348.3125 -216.399414062 372.487304688 -214.887695312 392.1328125 -211.8671875 c 1
 389.111328125 -98.533203125 374 20.0888671875 346.80078125 144 c 1
 307.51171875 142.48828125 276.153320312 130.021484375 252.733398438 106.599609375 c 0
 229.311523438 83.1796875 217.600585938 56.35546875 217.600585938 26.1337890625 c 0
 217.600585938 -23.732421875 244.044921875 -63.77734375 296.93359375 -93.9990234375 c 0
 301.465820312 -98.533203125 303.732421875 -103.065429688 303.732421875 -107.600585938 c 0
 303.732421875 -119.6875 296.93359375 -125.732421875 283.333007812 -125.732421875 c 2
 276.533203125 -125.732421875 l 1
 202.48828125 -84.9326171875 165.465820312 -26 165.465820312 51.06640625 c 0x9a9a80
 165.465820312 94.888671875 179.821289062 134.93359375 208.534179688 171.200195312 c 0
 237.24609375 207.466796875 276.533203125 230.1328125 326.400390625 239.19921875 c 1
 320.702148438 260.56640625 304.935546875 315.5 279.096679688 404 c 0
 277.524414062 409.38671875 275.9140625 414.897460938 274.266601562 420.533203125 c 1
 239.512695312 381.245117188 213.06640625 350.266601562 194.93359375 327.600585938 c 0
 176.799804688 304.93359375 156.020507812 275.844726562 132.600585938 240.333984375 c 0
 109.1796875 204.821289062 92.1796875 169.688476562 81.6005859375 134.93359375 c 0
 71.0224609375 100.1796875 65.7333984375 63.912109375 65.7333984375 26.1337890625 c 0
 65.7333984375 -38.845703125 91.4208984375 -95.51171875 142.799804688 -143.866210938 c 0
 194.1796875 -192.221679688 253.111328125 -216.399414062 319.600585938 -216.399414062 c 0x9a3080
387.599609375 1050.66503906 m 1
 340.75390625 1024.9765625 303.354492188 988.709960938 275.400390625 941.866210938 c 0
 247.444335938 895.020507812 233.466796875 844.397460938 233.466796875 789.999023438 c 0
 233.466796875 729.5546875 246.3125 654.75390625 272 565.599609375 c 1
 320.35546875 623.020507812 357.37890625 677.419921875 383.06640625 728.797851562 c 0
 408.75390625 780.177734375 421.599609375 834.578125 421.599609375 891.998046875 c 0x905180
 421.599609375 946.397460938 410.266601562 999.287109375 387.599609375 1050.66503906 c 1
315.06640625 -717.33203125 m 1
 325.64453125 -724.88671875 332.444335938 -730.931640625 335.466796875 -735.46484375 c 0
 343.021484375 -744.532226562 346.80078125 -754.353515625 346.80078125 -764.931640625 c 0xd01880
 346.80078125 -784.577148438 339.245117188 -800.443359375 324.1328125 -812.532226562 c 0
 309.021484375 -824.620117188 290.888671875 -830.6640625 269.733398438 -830.6640625 c 0
 228.93359375 -830.6640625 208.534179688 -815.553710938 208.534179688 -785.331054688 c 0
 208.534179688 -758.130859375 225.912109375 -737.73046875 260.666015625 -724.130859375 c 1
 247.065429688 -713.553710938 240.267578125 -699.953125 240.267578125 -683.33203125 c 0
 240.267578125 -665.198242188 246.689453125 -650.086914062 259.534179688 -637.998046875 c 0
 272.377929688 -625.911132812 287.8671875 -619.865234375 306 -619.865234375 c 0
 321.111328125 -619.865234375 333.955078125 -624.3984375 344.534179688 -633.46484375 c 0
 355.111328125 -642.532226562 360.400390625 -653.109375 360.400390625 -665.198242188 c 0xd03480
 360.400390625 -681.819335938 353.600585938 -694.665039062 340 -703.731445312 c 0
 335.466796875 -708.265625 327.153320312 -712.797851562 315.06640625 -717.33203125 c 1
303.732421875 -710.53125 m 0
 305.244140625 -710.53125 306.755859375 -709.776367188 308.267578125 -708.265625 c 0
 327.912109375 -699.19921875 337.733398438 -684.84375 337.733398438 -665.198242188 c 0xd01480
 337.733398438 -656.130859375 334.7109375 -648.576171875 328.666992188 -642.532226562 c 0
 322.622070312 -636.486328125 314.311523438 -633.46484375 303.732421875 -633.46484375 c 0
 291.64453125 -633.46484375 281.821289062 -636.866210938 274.266601562 -643.665039062 c 0
 266.712890625 -650.463867188 262.93359375 -659.153320312 262.93359375 -669.731445312 c 0
 262.93359375 -684.84375 276.533203125 -698.443359375 303.732421875 -710.53125 c 0
272 -730.931640625 m 2
 270.48828125 -732.443359375 268.978515625 -733.198242188 267.465820312 -733.198242188 c 0
 243.288085938 -743.776367188 231.201171875 -759.642578125 231.201171875 -780.797851562 c 0
 231.201171875 -804.9765625 244.80078125 -817.065429688 272 -817.065429688 c 0
 285.599609375 -817.065429688 297.3125 -813.286132812 307.131835938 -805.731445312 c 0
 316.955078125 -798.176757812 321.8671875 -789.109375 321.8671875 -778.532226562 c 0x903880
 321.8671875 -764.931640625 314.311523438 -753.598632812 299.200195312 -744.532226562 c 2
 272 -730.931640625 l 2
EndSplineSet
EndChar

StartChar: uniE050
Encoding: 57424 57424 40
Width: 612
Flags: WO
HStem: -626.664 38.5322<152.87 297.411> -522.398 190.399<102.567 194.792> -252.665 36.2656<227.466 392.133> -241.332 38.5322<430.666 469.16>
VStem: 0.000976562 65.7324<-29.7836 152.558> 29.4668 199.467<-488.204 -372.914> 165.466 52.1348<-39.5428 90.8924> 190.4 43.0664<673.298 899.599> 392.133 38.5332<-478.244 -248.132 -202.8 -10.0011> 421.6 65.7324<768.607 951.599> 548.534 63.4648<-105.643 45.2291>
LayerCount: 2
Fore
SplineSet
242.534179688 531.599609375 m 0xe8a0
 207.778320312 650.977539062 190.400390625 771.110351562 190.400390625 891.998046875 c 0xe9a0
 190.400390625 949.419921875 203.24609375 1003.8203125 228.93359375 1055.19921875 c 0
 254.62109375 1106.57617188 290.1328125 1149.64355469 335.466796875 1184.39648438 c 0
 336.978515625 1185.91015625 339.245117188 1186.6640625 342.266601562 1186.6640625 c 0
 345.287109375 1186.6640625 347.5546875 1185.91015625 349.06640625 1184.39648438 c 0
 386.846679688 1140.57714844 419.333007812 1082.3984375 446.534179688 1009.86523438 c 0
 473.733398438 937.33203125 487.33203125 873.110351562 487.33203125 817.19921875 c 0xe460
 487.33203125 752.220703125 471.466796875 691.776367188 439.732421875 635.866210938 c 0
 408 579.954101562 363.420898438 519.510742188 306 454.533203125 c 1
 324.1328125 394.087890625 343.021484375 323.8203125 362.666992188 243.732421875 c 1
 369.465820312 243.732421875 l 2
 440.48828125 243.732421875 498.666015625 218.80078125 543.999023438 168.93359375 c 0
 589.333007812 119.065429688 611.999023438 61.6455078125 611.999023438 -3.33203125 c 0
 611.999023438 -84.9326171875 577.999023438 -151.420898438 510 -202.799804688 c 0
 485.8203125 -219.419921875 459.377929688 -232.266601562 430.666015625 -241.33203125 c 1
 430.666015625 -259.46484375 l 1
 430.666015625 -277.598632812 l 2
 430.666015625 -327.465820312 429.912109375 -371.287109375 428.400390625 -409.065429688 c 0
 423.866210938 -469.51171875 402.333007812 -520.887695312 363.798828125 -563.19921875 c 0
 325.265625 -605.510742188 278.044921875 -626.6640625 222.1328125 -626.6640625 c 0
 169.24609375 -626.6640625 123.912109375 -607.3984375 86.1337890625 -568.865234375 c 0
 48.35546875 -530.33203125 29.466796875 -484.62109375 29.466796875 -431.732421875 c 0
 29.466796875 -404.533203125 40.4208984375 -381.110351562 62.333984375 -361.46484375 c 0
 84.24609375 -341.819335938 109.555664062 -331.999023438 138.266601562 -331.999023438 c 0
 163.955078125 -331.999023438 185.487304688 -341.819335938 202.8671875 -361.46484375 c 0
 220.24609375 -381.110351562 228.93359375 -404.533203125 228.93359375 -431.732421875 c 0xd4a0
 228.93359375 -455.91015625 219.8671875 -477.065429688 201.733398438 -495.19921875 c 0
 183.599609375 -513.33203125 162.4453125 -522.3984375 138.266601562 -522.3984375 c 0
 126.1796875 -522.3984375 114.088867188 -519.375976562 102 -513.33203125 c 1
 129.201171875 -563.19921875 170 -588.131835938 224.400390625 -588.131835938 c 0
 269.733398438 -588.131835938 307.888671875 -569.999023438 338.8671875 -533.732421875 c 0
 369.845703125 -497.463867188 386.846679688 -454.3984375 389.8671875 -404.533203125 c 0
 391.37890625 -366.752929688 392.1328125 -324.444335938 392.1328125 -277.598632812 c 2
 392.1328125 -248.131835938 l 1
 367.955078125 -251.153320312 343.021484375 -252.665039062 317.333984375 -252.665039062 c 0
 228.1796875 -252.665039062 153 -217.911132812 91.7998046875 -148.3984375 c 0
 30.6005859375 -78.8876953125 0.0009765625 4.22265625 0.0009765625 100.93359375 c 0
 0.0009765625 122.087890625 2.267578125 143.62109375 6.80078125 165.534179688 c 0
 11.3330078125 187.4453125 15.8671875 206.333007812 20.3994140625 222.200195312 c 0
 24.9345703125 238.06640625 34.0009765625 257.33203125 47.6005859375 280 c 0
 61.201171875 302.666015625 71.0224609375 319.666015625 77.0673828125 331 c 0
 83.1123046875 342.333007812 96.3330078125 360.466796875 116.733398438 385.399414062 c 0
 137.133789062 410.333007812 149.978515625 426.19921875 155.267578125 432.999023438 c 0
 160.5546875 439.798828125 175.2890625 456.799804688 199.466796875 483.999023438 c 0
 223.64453125 511.200195312 238 527.065429688 242.534179688 531.599609375 c 0xe8a0
428.400390625 -202.799804688 m 1xd020
 463.154296875 -192.221679688 491.866210938 -171.444335938 514.533203125 -140.465820312 c 0
 537.200195312 -109.487304688 548.534179688 -76.6220703125 548.534179688 -41.8662109375 c 0
 548.534179688 3.4658203125 533.799804688 43.888671875 504.333007812 79.3994140625 c 0
 474.866210938 114.912109375 435.956054688 135.6875 387.599609375 141.733398438 c 1
 411.77734375 25.37890625 425.376953125 -89.4658203125 428.400390625 -202.799804688 c 1xd020
319.600585938 -216.399414062 m 0xeaa0
 348.3125 -216.399414062 372.487304688 -214.887695312 392.1328125 -211.8671875 c 1
 389.111328125 -98.533203125 374 20.0888671875 346.80078125 144 c 1
 307.51171875 142.48828125 276.153320312 130.021484375 252.733398438 106.599609375 c 0
 229.311523438 83.1796875 217.600585938 56.35546875 217.600585938 26.1337890625 c 0
 217.600585938 -23.732421875 244.044921875 -63.77734375 296.93359375 -93.9990234375 c 0
 301.465820312 -98.533203125 303.732421875 -103.065429688 303.732421875 -107.600585938 c 0
 303.732421875 -119.6875 296.93359375 -125.732421875 283.333007812 -125.732421875 c 2
 276.533203125 -125.732421875 l 1
 202.48828125 -84.9326171875 165.465820312 -26 165.465820312 51.06640625 c 0
 165.465820312 94.888671875 179.821289062 134.93359375 208.534179688 171.200195312 c 0
 237.24609375 207.466796875 276.533203125 230.1328125 326.400390625 239.19921875 c 1
 320.702148438 260.56640625 304.935546875 315.5 279.096679688 404 c 0
 277.524414062 409.38671875 275.9140625 414.897460938 274.266601562 420.533203125 c 1
 239.512695312 381.245117188 213.06640625 350.266601562 194.93359375 327.600585938 c 0
 176.799804688 304.93359375 156.020507812 275.844726562 132.600585938 240.333984375 c 0
 109.1796875 204.821289062 92.1796875 169.688476562 81.6005859375 134.93359375 c 0
 71.0224609375 100.1796875 65.7333984375 63.912109375 65.7333984375 26.1337890625 c 0
 65.7333984375 -38.845703125 91.4208984375 -95.51171875 142.799804688 -143.866210938 c 0
 194.1796875 -192.221679688 253.111328125 -216.399414062 319.600585938 -216.399414062 c 0xeaa0
387.599609375 1050.66503906 m 1
 340.75390625 1024.9765625 303.354492188 988.709960938 275.400390625 941.866210938 c 0
 247.444335938 895.020507812 233.466796875 844.397460938 233.466796875 789.999023438 c 0
 233.466796875 729.5546875 246.3125 654.75390625 272 565.599609375 c 1
 320.35546875 623.020507812 357.37890625 677.419921875 383.06640625 728.797851562 c 0
 408.75390625 780.177734375 421.599609375 834.578125 421.599609375 891.998046875 c 0xc160
 421.599609375 946.397460938 410.266601562 999.287109375 387.599609375 1050.66503906 c 1
EndSplineSet
EndChar
